{"title":"Supernatural S6E13 (HDTV 720p ENG+NL Subs) Hornigold TBS","uid":6189655,"size":1173382079,"categoryP":"video","categoryS":"hd___tv_shows","magnet":"?xt=urn:btih:c8af0c6d2003efb4948159b61f4c15579f1a023c&amp;dn=Supernatural+S6E13+%28HDTV+720p+ENG%2BNL+Subs%29+Hornigold+TBS&amp;tr=udp%3A%2F%2Ftracker.openbittorrent.com%3A80&amp;tr=udp%3A%2F%2Fopen.demonii.com%3A1337&amp;tr=udp%3A%2F%2Ftracker.coppersurfer.tk%3A6969&amp;tr=udp%3A%2F%2Fexodus.desync.com%3A6969","seeders":1,"leechers":0,"uploader":"Hornigold","files":-1,"time":1298233971,"description":"Supernatural S06E13 HDTV 720p DD5.1 ENG + NL Subs\n\nVerenigde Staten / Canada ~ 60 minuten ~ gecreÃƒÂ«erd door Eric Kripke ~ met Jared Padalecki &amp; Jensen Ackles\n\nSupernatural gaat over de broers Winchester die het bovennatuurlijke kwaad bestrijden. Ze nemen hierbij de taak van hun vader John over, die hiermee begonnen is om de dood van zijn vrouw te wreken. Dankzij hun vader groeien Sam en Dean op als demonenjagers. In elke aflevering lossen Dean en Sam een mysterie op door met een bovennatuurlijke tegenstander af te rekenen. Mysteries draaien meestal om kwaadaardige geesten, maar ook vampiers, weerwolven en andere demonen moeten worden verslagen.\n\nBestandsformaat: .MKV\nBestandsgrootte: 1,09 GB\nTaal: Engels in DD5.1\nOndertitelingen: Engels en Nederlands ~ biede custom (in te stellen)\nCategorie : Serie\nFormaat : NVT\nBron : HDTV 720p\nMenu: Nee\nExtra's: Nee\nGenre : Mysterie\nWeblink : http://www.imdb.com/title/tt0460681/\n\n~~~~~~~~~~~~~~~~~~~~~~\nUSA / Canada ~ 60 minutes ~ created by Eric Kripke ~ with Jared Padalecki &amp; Jensen Ackles.\n\nThis television drama is about two brothers, Sam and Dean, who were raised by their father, John, to hunt and kill all things that go &quot;bump in the night&quot; after his wife, Mary, was murdered by something supernaturally evil when the boys were young. 22 years later the brothers set out on a journey, fighting evil along the way, to find their recently missing father who, when they finally meet up with, reveals he knows what killed their mother, a demon, and has found a way to track and kill it. Meanwhile, Sam starts to develop frightening abilities that include death visions, visions of people dying before it actually happens. These visions are somehow connected to the demon who murdered his mother and it's mysterious plans that seem to be all about Sam. When their father dies striking a deal with the very same devil that had killed his wife, the brothers, now alone and without their mentor...\n\nFile Format: .MKV\nFile size: 1.09 GB\nLanguage: English in DD5.1\nSubtitles: English and Dutch ~ both custom (selectable)\nCategory : Serie\nFormat : -\nSource : HDTV 720p\nMenu: No\nExtras: No\nGenre : Mystery\nWeblink : http://www.imdb.com/title/tt0460681/\n\nVideo and audio information:\n~~~~~~~~~~~~~~~~~~~~~~\nVideo\nID                               : 1\nFormat                           : AVC\nFormat/Info                      : Advanced Video Codec\nFormat profile                   : &lt;a class=&quot;__cf_email__&quot; href=&quot;/cdn-cgi/l/email-protection&quot; data-cfemail=&quot;f1b9989699b1bdc2dfc0&quot;&gt;[email&amp;#160;protected]&lt;/a&gt;&lt;script cf-hash='f9e31' type=&quot;text/javascript&quot;&gt;\n/* &lt;![CDATA[ */!function(){try{var t=&quot;currentScript&quot;in document?document.currentScript:function(){for(var t=document.getElementsByTagName(&quot;script&quot;),e=t.length;e--;)if(t[e].getAttribute(&quot;cf-hash&quot;))return t[e]}();if(t&amp;&amp;t.previousSibling){var e,r,n,i,c=t.previousSibling,a=c.getAttribute(&quot;data-cfemail&quot;);if(a){for(e=&quot;&quot;,r=parseInt(a.substr(0,2),16),n=2;a.length-n;n+=2)i=parseInt(a.substr(n,2),16)^r,e+=String.fromCharCode(i);e=document.createTextNode(e),c.parentNode.replaceChild(e,c)}}}catch(u){}}();/* ]]&gt; */&lt;/script&gt;\nFormat settings, CABAC           : Yes\nFormat settings, ReFrames        : 3 frames\nFormat settings, GOP             : M=1, N=32\nMuxing mode                      : Container profile=&lt;a class=&quot;__cf_email__&quot; href=&quot;/cdn-cgi/l/email-protection&quot; data-cfemail=&quot;590c373237362e37196a7768&quot;&gt;[email&amp;#160;protected]&lt;/a&gt;&lt;script cf-hash='f9e31' type=&quot;text/javascript&quot;&gt;\n/* &lt;![CDATA[ */!function(){try{var t=&quot;currentScript&quot;in document?document.currentScript:function(){for(var t=document.getElementsByTagName(&quot;script&quot;),e=t.length;e--;)if(t[e].getAttribute(&quot;cf-hash&quot;))return t[e]}();if(t&amp;&amp;t.previousSibling){var e,r,n,i,c=t.previousSibling,a=c.getAttribute(&quot;data-cfemail&quot;);if(a){for(e=&quot;&quot;,r=parseInt(a.substr(0,2),16),n=2;a.length-n;n+=2)i=parseInt(a.substr(n,2),16)^r,e+=String.fromCharCode(i);e=document.createTextNode(e),c.parentNode.replaceChild(e,c)}}}catch(u){}}();/* ]]&gt; */&lt;/script&gt;\nCodec ID                         : V_MPEG4/ISO/AVC\nDuration                         : 40mn 11s\nBit rate                         : 3 506 Kbps\nWidth                            : 1 280 pixels\nHeight                           : 720 pixels\nDisplay aspect ratio             : 16:9\nFrame rate                       : 23.976 fps\nColor space                      : YUV\nChroma subsampling               : 4:2:0\nBit depth                        : 8 bits\nScan type                        : Progressive\nBits/(Pixel*Frame)               : 0.159\nStream size                      : 986 MiB (88%)\nWriting library                  : x264 core 102 r1666 d058f37\nEncoding settings                : cabac=1 / ref=3 / deblock=1:0:0 / analyse=0x3:0x113 / me=hex / subme=6 / psy=1 / psy_rd=1.00:0.00 / mixed_ref=1 / me_range=16 / chroma_me=1 / trellis=1 / 8x8dct=1 / cqm=0 / deadzone=21,11 / fast_pskip=1 / chroma_qp_offset=-2 / threads=12 / sliced_threads=0 / nr=0 / decimate=1 / interlaced=0 / constrained_intra=0 / bframes=3 / b_pyramid=1 / b_adapt=1 / b_bias=0 / direct=1 / weightb=1 / open_gop=0 / weightp=2 / keyint=240 / keyint_min=24 / scenecut=40 / intra_refresh=0 / rc=2pass / mbtree=0 / bitrate=3506 / ratetol=1.0 / qcomp=0.60 / qpmin=10 / qpmax=51 / qpstep=4 / cplxblur=20.0 / qblur=0.5 / ip_ratio=1.40 / pb_ratio=1.30 / aq=1:1.00\nLanguage                         : English\n\nAudio\nID                               : 2\nFormat                           : AC-3\nFormat/Info                      : Audio Coding 3\nMode extension                   : CM (complete main)\nCodec ID                         : A_AC3\nDuration                         : 40mn 11s\nBit rate mode                    : Constant\nBit rate                         : 384 Kbps\nChannel(s)                       : 6 channels\nChannel positions                : Front: L C R, Side: L R, LFE\nSampling rate                    : 48.0 KHz\nBit depth                        : 16 bits\nStream size                      : 110 MiB (10%)\n\n~~~~~~~~~~~~~~~\nHornigold TBS\n~~~~~~~~~~~~~~~","torrent":{"xt":"urn:btih:c8af0c6d2003efb4948159b61f4c15579f1a023c","amp;dn":"Supernatural+S6E13+%28HDTV+720p+ENG%2BNL+Subs%29+Hornigold+TBS","amp;tr":["udp%3A%2F%2Ftracker.openbittorrent.com%3A80","udp%3A%2F%2Fopen.demonii.com%3A1337","udp%3A%2F%2Ftracker.coppersurfer.tk%3A6969","udp%3A%2F%2Fexodus.desync.com%3A6969"],"infoHash":"c8af0c6d2003efb4948159b61f4c15579f1a023c","infoHashBuffer":{"type":"Buffer","data":[200,175,12,109,32,3,239,180,148,129,89,182,31,76,21,87,159,26,2,60]},"announce":[],"urlList":[]}}